<svg xmlns="http://www.w3.org/2000/svg" xmlns:xlink="http://www.w3.org/1999/xlink" width="40" zoomAndPan="magnify" viewBox="0 0 30 30.000001" height="40" preserveAspectRatio="xMidYMid meet" version="1.0"><defs><clipPath id="ab8abb0f32"><path d="M 1.269531 1.132812 L 28.765625 1.132812 L 28.765625 27.898438 L 1.269531 27.898438 Z M 1.269531 1.132812 " clip-rule="nonzero"/></clipPath><clipPath id="8c2acfe09a"><path d="M 6.351562 1.132812 L 23.648438 1.132812 C 26.453125 1.132812 28.730469 3.410156 28.730469 6.214844 L 28.730469 22.816406 C 28.730469 25.625 26.453125 27.898438 23.648438 27.898438 L 6.351562 27.898438 C 3.546875 27.898438 1.269531 25.625 1.269531 22.816406 L 1.269531 6.214844 C 1.269531 3.410156 3.546875 1.132812 6.351562 1.132812 Z M 6.351562 1.132812 " clip-rule="nonzero"/></clipPath><clipPath id="3b2e4f48f9"><path d="M 0.269531 0.132812 L 27.765625 0.132812 L 27.765625 26.898438 L 0.269531 26.898438 Z M 0.269531 0.132812 " clip-rule="nonzero"/></clipPath><clipPath id="7872bb2db1"><path d="M 5.351562 0.132812 L 22.648438 0.132812 C 25.453125 0.132812 27.730469 2.410156 27.730469 5.214844 L 27.730469 21.816406 C 27.730469 24.625 25.453125 26.898438 22.648438 26.898438 L 5.351562 26.898438 C 2.546875 26.898438 0.269531 24.625 0.269531 21.816406 L 0.269531 5.214844 C 0.269531 2.410156 2.546875 0.132812 5.351562 0.132812 Z M 5.351562 0.132812 " clip-rule="nonzero"/></clipPath><clipPath id="9a0e6e5a28"><rect x="0" width="28" y="0" height="27"/></clipPath><clipPath id="59a1f53636"><path d="M 0.539062 4.09375 L 12 4.09375 L 12 23 L 0.539062 23 Z M 0.539062 4.09375 " clip-rule="nonzero"/></clipPath><clipPath id="095df186fb"><path d="M 12 4.09375 L 23.496094 4.09375 L 23.496094 23 L 12 23 Z M 12 4.09375 " clip-rule="nonzero"/></clipPath><clipPath id="78d501aad7"><path d="M 5 0.25 L 19.164062 0.25 L 19.164062 14.300781 L 5 14.300781 Z M 5 0.25 " clip-rule="nonzero"/></clipPath><clipPath id="71511a2d2f"><rect x="0" width="24" y="0" height="24"/></clipPath></defs><g clip-path="url(#ab8abb0f32)"><g clip-path="url(#8c2acfe09a)"><g transform="matrix(1, 0, 0, 1, 1, 1)"><g clip-path="url(#9a0e6e5a28)"><g clip-path="url(#3b2e4f48f9)"><g clip-path="url(#7872bb2db1)"><path fill="#ffffff" d="M 0.269531 0.132812 L 27.765625 0.132812 L 27.765625 26.898438 L 0.269531 26.898438 Z M 0.269531 0.132812 " fill-opacity="1" fill-rule="nonzero"/></g></g></g></g></g></g><g transform="matrix(1, 0, 0, 1, 3, 3)"><g clip-path="url(#71511a2d2f)"><g clip-path="url(#59a1f53636)"><path fill="#004aad" d="M 1.765625 4.238281 C 2.09375 4.363281 2.121094 4.722656 2.25 4.847656 C 2.292969 4.875 2.378906 4.875 2.460938 4.90625 C 2.605469 4.949219 2.734375 5.078125 2.804688 5.203125 C 3.246094 6.128906 3.257812 7.269531 3.558594 8.25 C 3.585938 8.335938 3.558594 8.421875 3.472656 8.480469 C 2.902344 8.734375 2.617188 9.164062 2.847656 9.773438 C 2.902344 9.902344 3.019531 10.046875 3.1875 10.285156 C 4.027344 11.382812 6.007812 13.574219 6.5625 14.117188 C 6.605469 14.160156 6.71875 14.214844 6.734375 14.199219 C 6.589844 13.960938 4.140625 10.96875 3.375 9.988281 C 3.246094 9.816406 3.175781 9.746094 3.132812 9.6875 C 2.875 9.175781 3.386719 8.734375 3.929688 8.648438 C 4.242188 8.59375 4.5 8.648438 4.742188 8.878906 C 5.507812 9.53125 6.265625 10.515625 7.003906 11.167969 C 8.441406 12.378906 9.9375 13.21875 10.804688 14.828125 C 11.972656 17.078125 11.488281 20.265625 11.515625 22.757812 C 11.515625 22.816406 11.515625 22.941406 11.488281 22.941406 L 7.117188 22.941406 C 7.074219 22.941406 7.0625 22.929688 7.046875 22.898438 L 7.046875 22.871094 C 6.976562 22.316406 7.046875 21.417969 7.046875 20.738281 C 7.230469 18.371094 3.644531 16.351562 2.222656 14.671875 C 1.324219 11.753906 0.710938 8.207031 0.597656 5.164062 C 0.597656 4.933594 0.539062 4.59375 0.753906 4.449219 C 0.9375 4.351562 1.203125 4.21875 1.402344 4.191406 C 1.402344 4.191406 1.578125 4.160156 1.765625 4.238281 Z M 1.765625 4.238281 " fill-opacity="1" fill-rule="nonzero"/></g><g clip-path="url(#095df186fb)"><path fill="#004aad" d="M 22.277344 4.179688 C 22.691406 4.09375 23.34375 4.351562 23.386719 4.820312 C 23.460938 6.199219 22.992188 8.792969 22.777344 10.246094 C 22.546875 11.582031 22.265625 13.648438 21.835938 14.53125 C 20.941406 15.640625 19.347656 16.765625 18.492188 17.703125 C 17.921875 18.300781 17.238281 18.929688 17.011719 19.753906 C 16.769531 20.722656 17.011719 21.832031 16.898438 22.84375 C 16.898438 22.871094 16.898438 22.886719 16.867188 22.886719 C 16.570312 22.886719 12.753906 22.914062 12.441406 22.914062 C 12.441406 21.019531 12.269531 18.941406 12.414062 17.050781 C 12.484375 16.28125 12.683594 15.597656 13.011719 14.957031 C 13.949219 13.078125 16.015625 12.09375 17.566406 10.5 C 18.179688 9.902344 18.878906 9.007812 19.589844 8.621094 C 20.117188 8.464844 21.070312 8.964844 20.796875 9.589844 C 19.746094 11.125 18.421875 12.492188 17.296875 14.003906 C 17.140625 14.203125 17.269531 14.171875 17.382812 14.046875 C 17.550781 13.875 17.78125 13.632812 18.109375 13.289062 C 19.230469 12.007812 20.882812 10.34375 21.109375 9.601562 C 21.195312 9.21875 21.082031 8.878906 20.753906 8.636719 C 20.613281 8.523438 20.355469 8.523438 20.34375 8.292969 C 20.398438 7.609375 20.882812 5.789062 21.039062 5.304688 C 21.097656 5.132812 21.269531 4.949219 21.453125 4.933594 C 21.554688 4.933594 21.636719 4.890625 21.679688 4.820312 C 21.78125 4.679688 21.9375 4.25 22.222656 4.195312 L 22.28125 4.179688 Z M 22.277344 4.179688 " fill-opacity="1" fill-rule="nonzero"/></g><g clip-path="url(#78d501aad7)"><path fill="#59b3fb" d="M 11.554688 13.625 C 11.398438 13.105469 10.96875 13.085938 10.570312 12.828125 C 10.101562 12.34375 10.203125 12.03125 9.429688 11.8125 C 8.753906 11.484375 9.078125 10.84375 8.132812 10.59375 C 7.632812 10.429688 7.625 9.765625 7.175781 9.546875 C 7 9.449219 6.804688 9.382812 6.65625 9.25 C 6.410156 9.039062 6.367188 8.632812 6.128906 8.429688 C 5.914062 8.226562 5.523438 8.203125 5.332031 8.003906 C 4.949219 7.507812 5.199219 6.574219 5.136719 5.960938 C 5.144531 4.910156 5.148438 3.84375 5.148438 2.84375 C 5.125 2.34375 5.1875 1.746094 5.742188 1.582031 C 6.324219 1.417969 6.285156 1.101562 6.519531 0.644531 C 6.894531 0.0898438 8.210938 0.355469 8.933594 0.316406 C 10.078125 0.300781 9.929688 0.472656 10.484375 1.304688 C 11.035156 1.710938 11.34375 1.558594 11.601562 2.347656 C 11.738281 2.703125 12.199219 2.847656 12.511719 2.628906 C 12.78125 2.453125 12.8125 2.085938 13.015625 1.851562 C 13.6875 1.28125 13.738281 1.660156 14.171875 0.660156 C 14.402344 0.292969 14.890625 0.328125 15.277344 0.320312 C 15.769531 0.320312 16.285156 0.320312 16.769531 0.320312 C 17.734375 0.308594 17.613281 0.664062 18.035156 1.320312 C 18.21875 1.542969 18.574219 1.609375 18.773438 1.796875 C 19 2.007812 19.007812 2.335938 19.011719 2.628906 C 19.015625 4.03125 19.042969 5.765625 19.011719 7.167969 C 19.003906 7.4375 18.996094 7.730469 18.8125 7.941406 C 18.636719 8.144531 18.277344 8.214844 18.070312 8.410156 C 17.828125 8.632812 17.796875 9.003906 17.5625 9.226562 C 17.332031 9.453125 16.972656 9.511719 16.761719 9.761719 C 16.585938 9.960938 16.558594 10.25 16.394531 10.414062 C 16.203125 10.617188 15.878906 10.652344 15.652344 10.816406 C 15.308594 11.050781 15.289062 11.613281 14.871094 11.789062 C 13.953125 12.082031 14.277344 12.265625 13.746094 12.824219 C 13.546875 12.988281 13.246094 13.058594 13.066406 13.238281 C 12.828125 13.460938 12.800781 13.847656 12.542969 14.054688 C 12.160156 14.359375 11.679688 14.0625 11.5625 13.640625 Z M 11.554688 13.625 " fill-opacity="1" fill-rule="nonzero"/></g></g></g></svg>