<svg xmlns="http://www.w3.org/2000/svg" xmlns:xlink="http://www.w3.org/1999/xlink" width="165" zoomAndPan="magnify" viewBox="0 0 123.75 30.000001" height="40" preserveAspectRatio="xMidYMid meet" version="1.0"><defs><g/><clipPath id="be97aa536b"><path d="M 4.777344 1.847656 L 30.808594 1.847656 L 30.808594 27.183594 L 4.777344 27.183594 Z M 4.777344 1.847656 " clip-rule="nonzero"/></clipPath><clipPath id="99da97e6df"><path d="M 9.859375 1.847656 L 25.691406 1.847656 C 27.039062 1.847656 28.328125 2.382812 29.28125 3.335938 C 30.234375 4.289062 30.769531 5.582031 30.769531 6.929688 L 30.769531 22.101562 C 30.769531 23.449219 30.234375 24.742188 29.28125 25.695312 C 28.328125 26.648438 27.039062 27.183594 25.691406 27.183594 L 9.859375 27.183594 C 8.511719 27.183594 7.21875 26.648438 6.265625 25.695312 C 5.3125 24.742188 4.777344 23.449219 4.777344 22.101562 L 4.777344 6.929688 C 4.777344 5.582031 5.3125 4.289062 6.265625 3.335938 C 7.21875 2.382812 8.511719 1.847656 9.859375 1.847656 Z M 9.859375 1.847656 " clip-rule="nonzero"/></clipPath><clipPath id="0c94aedbcf"><path d="M 0.777344 0.847656 L 26.808594 0.847656 L 26.808594 26.183594 L 0.777344 26.183594 Z M 0.777344 0.847656 " clip-rule="nonzero"/></clipPath><clipPath id="78f4eea3f2"><path d="M 5.859375 0.847656 L 21.691406 0.847656 C 23.039062 0.847656 24.328125 1.382812 25.28125 2.335938 C 26.234375 3.289062 26.769531 4.582031 26.769531 5.929688 L 26.769531 21.101562 C 26.769531 22.449219 26.234375 23.742188 25.28125 24.695312 C 24.328125 25.648438 23.039062 26.183594 21.691406 26.183594 L 5.859375 26.183594 C 4.511719 26.183594 3.21875 25.648438 2.265625 24.695312 C 1.3125 23.742188 0.777344 22.449219 0.777344 21.101562 L 0.777344 5.929688 C 0.777344 4.582031 1.3125 3.289062 2.265625 2.335938 C 3.21875 1.382812 4.511719 0.847656 5.859375 0.847656 Z M 5.859375 0.847656 " clip-rule="nonzero"/></clipPath><clipPath id="a83446f509"><rect x="0" width="27" y="0" height="27"/></clipPath><clipPath id="aba7fe9af4"><path d="M 0.925781 4.492188 L 12 4.492188 L 12 22.429688 L 0.925781 22.429688 Z M 0.925781 4.492188 " clip-rule="nonzero"/></clipPath><clipPath id="b8c5c65566"><path d="M 12 4.492188 L 22.585938 4.492188 L 22.585938 22.429688 L 12 22.429688 Z M 12 4.492188 " clip-rule="nonzero"/></clipPath><clipPath id="bb42e56efa"><path d="M 5.101562 0.714844 L 18.554688 0.714844 L 18.554688 14.152344 L 5.101562 14.152344 Z M 5.101562 0.714844 " clip-rule="nonzero"/></clipPath><clipPath id="93afe58f06"><rect x="0" width="23" y="0" height="23"/></clipPath><clipPath id="74f962e32d"><rect x="0" width="90" y="0" height="25"/></clipPath></defs><g clip-path="url(#be97aa536b)"><g clip-path="url(#99da97e6df)"><g transform="matrix(1, 0, 0, 1, 4, 1)"><g clip-path="url(#a83446f509)"><g clip-path="url(#0c94aedbcf)"><g clip-path="url(#78f4eea3f2)"><path fill="#ffffff" d="M 0.777344 0.847656 L 26.808594 0.847656 L 26.808594 26.183594 L 0.777344 26.183594 Z M 0.777344 0.847656 " fill-opacity="1" fill-rule="nonzero"/></g></g></g></g></g></g><g transform="matrix(1, 0, 0, 1, 6, 3)"><g clip-path="url(#93afe58f06)"><g clip-path="url(#aba7fe9af4)"><path fill="#004aad" d="M 2.085938 4.625 C 2.394531 4.746094 2.421875 5.082031 2.542969 5.203125 C 2.585938 5.230469 2.664062 5.230469 2.746094 5.257812 C 2.878906 5.300781 3.003906 5.421875 3.070312 5.542969 C 3.488281 6.417969 3.5 7.496094 3.785156 8.425781 C 3.808594 8.507812 3.785156 8.585938 3.703125 8.640625 C 3.164062 8.882812 2.894531 9.289062 3.109375 9.867188 C 3.164062 9.988281 3.273438 10.125 3.433594 10.351562 C 4.226562 11.390625 6.101562 13.464844 6.625 13.976562 C 6.667969 14.015625 6.773438 14.070312 6.789062 14.058594 C 6.652344 13.828125 4.335938 11 3.609375 10.070312 C 3.488281 9.90625 3.421875 9.839844 3.378906 9.785156 C 3.136719 9.300781 3.621094 8.882812 4.136719 8.800781 C 4.429688 8.75 4.671875 8.800781 4.902344 9.019531 C 5.628906 9.636719 6.34375 10.570312 7.046875 11.1875 C 8.40625 12.332031 9.820312 13.128906 10.644531 14.652344 C 11.75 16.78125 11.289062 19.800781 11.316406 22.15625 C 11.316406 22.210938 11.316406 22.332031 11.289062 22.332031 L 7.152344 22.332031 C 7.113281 22.332031 7.097656 22.320312 7.085938 22.292969 L 7.085938 22.265625 C 7.019531 21.738281 7.085938 20.890625 7.085938 20.242188 C 7.261719 18.007812 3.863281 16.09375 2.519531 14.503906 C 1.667969 11.742188 1.089844 8.386719 0.980469 5.5 C 0.980469 5.285156 0.925781 4.960938 1.128906 4.828125 C 1.304688 4.734375 1.554688 4.609375 1.742188 4.582031 C 1.742188 4.582031 1.910156 4.554688 2.085938 4.625 Z M 2.085938 4.625 " fill-opacity="1" fill-rule="nonzero"/></g><g clip-path="url(#b8c5c65566)"><path fill="#004aad" d="M 21.503906 4.570312 C 21.894531 4.492188 22.515625 4.734375 22.554688 5.179688 C 22.621094 6.484375 22.179688 8.9375 21.976562 10.3125 C 21.757812 11.578125 21.492188 13.53125 21.085938 14.367188 C 20.238281 15.417969 18.726562 16.484375 17.917969 17.375 C 17.378906 17.941406 16.734375 18.53125 16.515625 19.3125 C 16.289062 20.230469 16.515625 21.28125 16.410156 22.238281 C 16.410156 22.265625 16.410156 22.277344 16.382812 22.277344 C 16.101562 22.277344 12.488281 22.304688 12.191406 22.304688 C 12.191406 20.511719 12.03125 18.546875 12.164062 16.753906 C 12.234375 16.027344 12.421875 15.378906 12.730469 14.773438 C 13.621094 12.996094 15.574219 12.0625 17.042969 10.554688 C 17.625 9.988281 18.285156 9.140625 18.957031 8.777344 C 19.457031 8.628906 20.359375 9.101562 20.101562 9.691406 C 19.105469 11.148438 17.851562 12.441406 16.789062 13.871094 C 16.640625 14.058594 16.761719 14.03125 16.867188 13.910156 C 17.03125 13.75 17.246094 13.519531 17.554688 13.195312 C 18.621094 11.984375 20.183594 10.40625 20.398438 9.707031 C 20.480469 9.339844 20.371094 9.019531 20.0625 8.789062 C 19.925781 8.679688 19.683594 8.679688 19.671875 8.464844 C 19.726562 7.820312 20.183594 6.09375 20.332031 5.636719 C 20.386719 5.472656 20.546875 5.300781 20.722656 5.285156 C 20.816406 5.285156 20.898438 5.246094 20.9375 5.179688 C 21.03125 5.042969 21.179688 4.640625 21.449219 4.585938 Z M 21.503906 4.570312 " fill-opacity="1" fill-rule="nonzero"/></g><g clip-path="url(#bb42e56efa)"><path fill="#59b3fb" d="M 11.351562 13.515625 C 11.207031 13.023438 10.796875 13.003906 10.417969 12.757812 C 9.976562 12.300781 10.070312 12.003906 9.339844 11.796875 C 8.703125 11.484375 9.007812 10.878906 8.113281 10.640625 C 7.640625 10.488281 7.632812 9.859375 7.207031 9.652344 C 7.042969 9.5625 6.855469 9.496094 6.714844 9.371094 C 6.484375 9.171875 6.445312 8.789062 6.21875 8.59375 C 6.011719 8.402344 5.644531 8.382812 5.460938 8.191406 C 5.101562 7.71875 5.335938 6.835938 5.277344 6.257812 C 5.285156 5.265625 5.289062 4.253906 5.289062 3.308594 C 5.265625 2.832031 5.324219 2.269531 5.851562 2.113281 C 6.402344 1.957031 6.367188 1.65625 6.585938 1.226562 C 6.941406 0.699219 8.1875 0.949219 8.875 0.914062 C 9.953125 0.902344 9.816406 1.0625 10.339844 1.851562 C 10.859375 2.234375 11.152344 2.089844 11.398438 2.835938 C 11.527344 3.175781 11.964844 3.308594 12.261719 3.105469 C 12.515625 2.9375 12.542969 2.589844 12.734375 2.367188 C 13.371094 1.828125 13.417969 2.1875 13.828125 1.242188 C 14.046875 0.894531 14.511719 0.925781 14.875 0.917969 C 15.34375 0.917969 15.832031 0.917969 16.289062 0.917969 C 17.203125 0.90625 17.085938 1.242188 17.488281 1.867188 C 17.660156 2.074219 18 2.136719 18.1875 2.316406 C 18.402344 2.515625 18.410156 2.828125 18.414062 3.105469 C 18.414062 4.433594 18.441406 6.074219 18.414062 7.398438 C 18.40625 7.652344 18.398438 7.933594 18.222656 8.132812 C 18.058594 8.324219 17.714844 8.390625 17.519531 8.578125 C 17.289062 8.785156 17.261719 9.136719 17.039062 9.351562 C 16.824219 9.5625 16.480469 9.617188 16.285156 9.855469 C 16.117188 10.042969 16.089844 10.316406 15.933594 10.472656 C 15.753906 10.664062 15.445312 10.699219 15.230469 10.855469 C 14.90625 11.078125 14.890625 11.609375 14.492188 11.773438 C 13.621094 12.054688 13.929688 12.226562 13.425781 12.753906 C 13.238281 12.910156 12.957031 12.976562 12.785156 13.148438 C 12.558594 13.359375 12.53125 13.722656 12.289062 13.917969 C 11.925781 14.207031 11.46875 13.925781 11.359375 13.527344 Z M 11.351562 13.515625 " fill-opacity="1" fill-rule="nonzero"/></g></g></g><g transform="matrix(1, 0, 0, 1, 31, 2)"><g clip-path="url(#74f962e32d)"><g fill="#ffffff" fill-opacity="1"><g transform="translate(1.284973, 19.441874)"><g><path d="M 7.828125 0.203125 C 6.503906 0.203125 5.316406 -0.0976562 4.265625 -0.703125 C 3.210938 -1.304688 2.382812 -2.175781 1.78125 -3.3125 C 1.175781 -4.457031 0.875 -5.835938 0.875 -7.453125 C 0.875 -9.066406 1.175781 -10.445312 1.78125 -11.59375 C 2.382812 -12.738281 3.210938 -13.613281 4.265625 -14.21875 C 5.328125 -14.832031 6.515625 -15.140625 7.828125 -15.140625 C 8.679688 -15.140625 9.476562 -15.019531 10.21875 -14.78125 C 10.957031 -14.539062 11.609375 -14.1875 12.171875 -13.71875 C 12.742188 -13.257812 13.210938 -12.695312 13.578125 -12.03125 C 13.941406 -11.375 14.179688 -10.625 14.296875 -9.78125 L 11.203125 -9.78125 C 11.128906 -10.195312 10.992188 -10.566406 10.796875 -10.890625 C 10.609375 -11.222656 10.367188 -11.503906 10.078125 -11.734375 C 9.785156 -11.960938 9.457031 -12.132812 9.09375 -12.25 C 8.726562 -12.363281 8.328125 -12.421875 7.890625 -12.421875 C 7.109375 -12.421875 6.421875 -12.222656 5.828125 -11.828125 C 5.234375 -11.429688 4.773438 -10.863281 4.453125 -10.125 C 4.140625 -9.394531 3.984375 -8.503906 3.984375 -7.453125 C 3.984375 -6.390625 4.144531 -5.488281 4.46875 -4.75 C 4.789062 -4.007812 5.242188 -3.445312 5.828125 -3.0625 C 6.421875 -2.6875 7.109375 -2.5 7.890625 -2.5 C 8.316406 -2.5 8.710938 -2.554688 9.078125 -2.671875 C 9.453125 -2.796875 9.785156 -2.96875 10.078125 -3.1875 C 10.367188 -3.414062 10.609375 -3.691406 10.796875 -4.015625 C 10.992188 -4.347656 11.128906 -4.722656 11.203125 -5.140625 L 14.3125 -5.140625 C 14.21875 -4.410156 14 -3.722656 13.65625 -3.078125 C 13.320312 -2.441406 12.875 -1.875 12.3125 -1.375 C 11.757812 -0.875 11.101562 -0.484375 10.34375 -0.203125 C 9.59375 0.0664062 8.753906 0.203125 7.828125 0.203125 Z M 7.828125 0.203125 "/></g></g></g><g fill="#ffffff" fill-opacity="1"><g transform="translate(15.537205, 19.441874)"><g><path d="M 4.375 0.203125 C 3.664062 0.203125 3.03125 0.0820312 2.46875 -0.15625 C 1.914062 -0.40625 1.476562 -0.773438 1.15625 -1.265625 C 0.832031 -1.753906 0.671875 -2.363281 0.671875 -3.09375 C 0.671875 -3.71875 0.785156 -4.234375 1.015625 -4.640625 C 1.242188 -5.054688 1.550781 -5.390625 1.9375 -5.640625 C 2.332031 -5.898438 2.78125 -6.09375 3.28125 -6.21875 C 3.789062 -6.351562 4.320312 -6.445312 4.875 -6.5 C 5.519531 -6.5625 6.039062 -6.617188 6.4375 -6.671875 C 6.832031 -6.734375 7.117188 -6.820312 7.296875 -6.9375 C 7.484375 -7.0625 7.578125 -7.25 7.578125 -7.5 L 7.578125 -7.546875 C 7.578125 -7.847656 7.503906 -8.109375 7.359375 -8.328125 C 7.222656 -8.546875 7.023438 -8.710938 6.765625 -8.828125 C 6.503906 -8.941406 6.1875 -9 5.8125 -9 C 5.4375 -9 5.101562 -8.941406 4.8125 -8.828125 C 4.53125 -8.710938 4.300781 -8.554688 4.125 -8.359375 C 3.945312 -8.160156 3.820312 -7.9375 3.75 -7.6875 L 1 -8.046875 C 1.15625 -8.710938 1.445312 -9.28125 1.875 -9.75 C 2.3125 -10.226562 2.867188 -10.59375 3.546875 -10.84375 C 4.222656 -11.09375 4.988281 -11.21875 5.84375 -11.21875 C 6.476562 -11.21875 7.078125 -11.144531 7.640625 -11 C 8.203125 -10.851562 8.703125 -10.625 9.140625 -10.3125 C 9.585938 -10.007812 9.9375 -9.617188 10.1875 -9.140625 C 10.4375 -8.671875 10.5625 -8.113281 10.5625 -7.46875 L 10.5625 0 L 7.703125 0 L 7.703125 -1.546875 L 7.609375 -1.546875 C 7.429688 -1.191406 7.191406 -0.882812 6.890625 -0.625 C 6.597656 -0.363281 6.242188 -0.160156 5.828125 -0.015625 C 5.410156 0.128906 4.925781 0.203125 4.375 0.203125 Z M 5.21875 -1.890625 C 5.695312 -1.890625 6.109375 -1.976562 6.453125 -2.15625 C 6.804688 -2.34375 7.082031 -2.59375 7.28125 -2.90625 C 7.488281 -3.226562 7.59375 -3.585938 7.59375 -3.984375 L 7.59375 -5.15625 C 7.5 -5.09375 7.367188 -5.035156 7.203125 -4.984375 C 7.035156 -4.929688 6.84375 -4.882812 6.625 -4.84375 C 6.414062 -4.800781 6.203125 -4.765625 5.984375 -4.734375 C 5.765625 -4.703125 5.566406 -4.671875 5.390625 -4.640625 C 5.023438 -4.585938 4.703125 -4.503906 4.421875 -4.390625 C 4.140625 -4.273438 3.921875 -4.117188 3.765625 -3.921875 C 3.617188 -3.722656 3.546875 -3.476562 3.546875 -3.1875 C 3.546875 -2.90625 3.617188 -2.664062 3.765625 -2.46875 C 3.910156 -2.28125 4.109375 -2.132812 4.359375 -2.03125 C 4.609375 -1.9375 4.894531 -1.890625 5.21875 -1.890625 Z M 5.21875 -1.890625 "/></g></g></g><g fill="#ffffff" fill-opacity="1"><g transform="translate(26.454118, 19.441874)"><g><path d="M 1.234375 0 L 1.234375 -11.0625 L 4.125 -11.0625 L 4.125 -9.140625 L 4.234375 -9.140625 C 4.429688 -9.816406 4.765625 -10.328125 5.234375 -10.671875 C 5.703125 -11.015625 6.253906 -11.1875 6.890625 -11.1875 C 7.046875 -11.1875 7.210938 -11.179688 7.390625 -11.171875 C 7.566406 -11.160156 7.71875 -11.140625 7.84375 -11.109375 L 7.84375 -8.46875 C 7.71875 -8.507812 7.53125 -8.539062 7.28125 -8.5625 C 7.03125 -8.582031 6.785156 -8.59375 6.546875 -8.59375 C 6.109375 -8.59375 5.707031 -8.492188 5.34375 -8.296875 C 4.988281 -8.109375 4.710938 -7.835938 4.515625 -7.484375 C 4.316406 -7.128906 4.21875 -6.710938 4.21875 -6.234375 L 4.21875 0 Z M 1.234375 0 "/></g></g></g><g fill="#ffffff" fill-opacity="1"><g transform="translate(33.384617, 19.441874)"><g><path d="M 6.234375 0.21875 C 5.109375 0.21875 4.132812 -0.015625 3.3125 -0.484375 C 2.5 -0.953125 1.867188 -1.613281 1.421875 -2.46875 C 0.984375 -3.320312 0.765625 -4.328125 0.765625 -5.484375 C 0.765625 -6.617188 0.984375 -7.613281 1.421875 -8.46875 C 1.859375 -9.332031 2.476562 -10.003906 3.28125 -10.484375 C 4.082031 -10.972656 5.019531 -11.21875 6.09375 -11.21875 C 6.84375 -11.21875 7.53125 -11.097656 8.15625 -10.859375 C 8.789062 -10.617188 9.347656 -10.257812 9.828125 -9.78125 C 10.304688 -9.3125 10.675781 -8.722656 10.9375 -8.015625 C 11.207031 -7.316406 11.34375 -6.507812 11.34375 -5.59375 L 11.34375 -4.765625 L 1.953125 -4.765625 L 1.953125 -6.640625 L 9.890625 -6.640625 L 8.5 -6.15625 C 8.5 -6.726562 8.40625 -7.222656 8.21875 -7.640625 C 8.039062 -8.066406 7.773438 -8.394531 7.421875 -8.625 C 7.078125 -8.851562 6.644531 -8.96875 6.125 -8.96875 C 5.613281 -8.96875 5.175781 -8.847656 4.8125 -8.609375 C 4.457031 -8.378906 4.179688 -8.0625 3.984375 -7.65625 C 3.796875 -7.25 3.703125 -6.78125 3.703125 -6.25 L 3.703125 -4.921875 C 3.703125 -4.304688 3.804688 -3.78125 4.015625 -3.34375 C 4.234375 -2.90625 4.535156 -2.578125 4.921875 -2.359375 C 5.316406 -2.140625 5.773438 -2.03125 6.296875 -2.03125 C 6.648438 -2.03125 6.972656 -2.078125 7.265625 -2.171875 C 7.554688 -2.273438 7.800781 -2.425781 8 -2.625 C 8.207031 -2.820312 8.363281 -3.066406 8.46875 -3.359375 L 11.1875 -2.96875 C 11.007812 -2.320312 10.695312 -1.757812 10.25 -1.28125 C 9.800781 -0.8125 9.238281 -0.441406 8.5625 -0.171875 C 7.882812 0.0859375 7.109375 0.21875 6.234375 0.21875 Z M 6.234375 0.21875 "/></g></g></g><g fill="#ffffff" fill-opacity="1"><g transform="translate(44.581978, 19.441874)"><g><path d="M 1.296875 0 L 1.296875 -14.921875 L 4.359375 -14.921875 L 4.359375 -2.5625 L 10.875 -2.5625 L 10.875 0 Z M 1.296875 0 "/></g></g></g><g fill="#ffffff" fill-opacity="1"><g transform="translate(55.27854, 19.441874)"><g><path d="M 6.21875 0.21875 C 5.101562 0.21875 4.132812 -0.0195312 3.3125 -0.5 C 2.5 -0.976562 1.867188 -1.644531 1.421875 -2.5 C 0.984375 -3.351562 0.765625 -4.347656 0.765625 -5.484375 C 0.765625 -6.640625 0.984375 -7.644531 1.421875 -8.5 C 1.867188 -9.351562 2.5 -10.019531 3.3125 -10.5 C 4.132812 -10.976562 5.101562 -11.21875 6.21875 -11.21875 C 7.332031 -11.21875 8.296875 -10.976562 9.109375 -10.5 C 9.929688 -10.019531 10.5625 -9.351562 11 -8.5 C 11.445312 -7.644531 11.671875 -6.640625 11.671875 -5.484375 C 11.671875 -4.347656 11.445312 -3.351562 11 -2.5 C 10.5625 -1.644531 9.929688 -0.976562 9.109375 -0.5 C 8.296875 -0.0195312 7.332031 0.21875 6.21875 0.21875 Z M 6.21875 -2.140625 C 6.738281 -2.140625 7.175781 -2.28125 7.53125 -2.5625 C 7.894531 -2.851562 8.171875 -3.25 8.359375 -3.75 C 8.546875 -4.257812 8.640625 -4.84375 8.640625 -5.5 C 8.640625 -6.15625 8.546875 -6.734375 8.359375 -7.234375 C 8.171875 -7.742188 7.894531 -8.140625 7.53125 -8.421875 C 7.175781 -8.710938 6.738281 -8.859375 6.21875 -8.859375 C 5.695312 -8.859375 5.253906 -8.710938 4.890625 -8.421875 C 4.535156 -8.140625 4.265625 -7.742188 4.078125 -7.234375 C 3.898438 -6.734375 3.8125 -6.15625 3.8125 -5.5 C 3.8125 -4.84375 3.898438 -4.257812 4.078125 -3.75 C 4.265625 -3.25 4.535156 -2.851562 4.890625 -2.5625 C 5.242188 -2.28125 5.6875 -2.140625 6.21875 -2.140625 Z M 6.21875 -2.140625 "/></g></g></g><g fill="#ffffff" fill-opacity="1"><g transform="translate(66.475854, 19.441874)"><g><path d="M 4.34375 0 L 0.265625 -11.0625 L 3.4375 -11.0625 L 5.296875 -5.375 C 5.515625 -4.675781 5.710938 -3.96875 5.890625 -3.25 C 6.066406 -2.539062 6.238281 -1.804688 6.40625 -1.046875 L 5.765625 -1.046875 C 5.929688 -1.804688 6.097656 -2.539062 6.265625 -3.25 C 6.441406 -3.957031 6.640625 -4.664062 6.859375 -5.375 L 8.6875 -11.0625 L 11.828125 -11.0625 L 7.75 0 Z M 4.34375 0 "/></g></g></g><g fill="#ffffff" fill-opacity="1"><g transform="translate(77.332624, 19.441874)"><g><path d="M 6.234375 0.21875 C 5.109375 0.21875 4.132812 -0.015625 3.3125 -0.484375 C 2.5 -0.953125 1.867188 -1.613281 1.421875 -2.46875 C 0.984375 -3.320312 0.765625 -4.328125 0.765625 -5.484375 C 0.765625 -6.617188 0.984375 -7.613281 1.421875 -8.46875 C 1.859375 -9.332031 2.476562 -10.003906 3.28125 -10.484375 C 4.082031 -10.972656 5.019531 -11.21875 6.09375 -11.21875 C 6.84375 -11.21875 7.53125 -11.097656 8.15625 -10.859375 C 8.789062 -10.617188 9.347656 -10.257812 9.828125 -9.78125 C 10.304688 -9.3125 10.675781 -8.722656 10.9375 -8.015625 C 11.207031 -7.316406 11.34375 -6.507812 11.34375 -5.59375 L 11.34375 -4.765625 L 1.953125 -4.765625 L 1.953125 -6.640625 L 9.890625 -6.640625 L 8.5 -6.15625 C 8.5 -6.726562 8.40625 -7.222656 8.21875 -7.640625 C 8.039062 -8.066406 7.773438 -8.394531 7.421875 -8.625 C 7.078125 -8.851562 6.644531 -8.96875 6.125 -8.96875 C 5.613281 -8.96875 5.175781 -8.847656 4.8125 -8.609375 C 4.457031 -8.378906 4.179688 -8.0625 3.984375 -7.65625 C 3.796875 -7.25 3.703125 -6.78125 3.703125 -6.25 L 3.703125 -4.921875 C 3.703125 -4.304688 3.804688 -3.78125 4.015625 -3.34375 C 4.234375 -2.90625 4.535156 -2.578125 4.921875 -2.359375 C 5.316406 -2.140625 5.773438 -2.03125 6.296875 -2.03125 C 6.648438 -2.03125 6.972656 -2.078125 7.265625 -2.171875 C 7.554688 -2.273438 7.800781 -2.425781 8 -2.625 C 8.207031 -2.820312 8.363281 -3.066406 8.46875 -3.359375 L 11.1875 -2.96875 C 11.007812 -2.320312 10.695312 -1.757812 10.25 -1.28125 C 9.800781 -0.8125 9.238281 -0.441406 8.5625 -0.171875 C 7.882812 0.0859375 7.109375 0.21875 6.234375 0.21875 Z M 6.234375 0.21875 "/></g></g></g></g></g></svg>